#N canvas 131 84 348 361 10;
#X obj 73 47 adc~;
#X obj 122 231 *~;
#X obj 55 232 *~;
#X obj 55 278 outlet~;
#X obj 122 276 outlet~;
#X obj 183 112 line~;
#X obj 182 44 r #transport;
#X obj 183 65 route play;
#X msg 183 88 \$1 10;
#X connect 0 0 2 0;
#X connect 0 1 1 0;
#X connect 1 0 4 0;
#X connect 2 0 3 0;
#X connect 5 0 2 1;
#X connect 5 0 1 1;
#X connect 6 0 7 0;
#X connect 7 0 8 0;
#X connect 8 0 5 0;