#N canvas 231 115 665 463 10;
#X obj 50 427 dac~;
#X obj 409 76 r #transport;
#X obj 467 208 sel 1;
#X obj 147 396 *~;
#X obj 49 395 *~;
#X obj 184 363 line~;
#X obj 467 261 float 0.5;
#X msg 467 284 \$1 300;
#X obj 467 241 del 200;
#X msg 184 286 0 20;
#X obj 255 222 catch~ \$0-dummy;
#X obj 199 201 throw~ \$0-dummy;
#X obj 311 201 throw~ \$0-dummy;
#X msg 199 173 set rec1;
#X msg 311 171 set rec2;
#X obj 254 302 pack 0 20;
#X obj 254 280 r \$0-vol;
#X obj 50 39 inlet~;
#X obj 145 40 inlet~;
#X obj 50 67 hip~ 3;
#X obj 145 67 hip~ 3;
#X text 199 69 fight DC;
#X obj 409 99 route record play;
#X obj 551 192 r #volume;
#X obj 551 213 route set;
#X connect 1 0 22 0;
#X connect 2 0 8 0;
#X connect 2 1 9 0;
#X connect 3 0 0 1;
#X connect 4 0 0 0;
#X connect 5 0 3 1;
#X connect 5 0 4 1;
#X connect 6 0 7 0;
#X connect 7 0 5 0;
#X connect 8 0 6 0;
#X connect 9 0 5 0;
#X connect 13 0 11 0;
#X connect 14 0 12 0;
#X connect 15 0 5 0;
#X connect 16 0 15 0;
#X connect 17 0 19 0;
#X connect 18 0 20 0;
#X connect 19 0 4 0;
#X connect 19 0 11 0;
#X connect 20 0 3 0;
#X connect 20 0 12 0;
#X connect 22 0 14 0;
#X connect 22 0 13 0;
#X connect 22 1 2 0;
#X connect 23 0 24 0;
#X connect 24 0 6 0;
