#N canvas 171 64 331 125 10;
#X obj 25 48 r #rjdj_architect_in;
#N canvas 8 29 614 446 APP_EJECT 1;
#X obj 34 36 inlet architect_in;
#X text 189 377 app is sent 'scene_eject_end' after fading out;
#X obj 34 377 s #rjdj_architect_out;
#X obj 57 277 s \$1-IO-mainmix_vol;
#X text 210 105 SCENE_EJECT;
#X text 201 277 fade down main mix;
#X msg 34 347 symbol scene_eject_end;
#X text 196 347 send 'scene_eject_end' to app;
#X obj 34 149 sel scene_eject_start;
#X text 192 149 when scene receives 'scene_eject_start' from app;
#X text 146 119 (app prepares scene to be shut down);
#X obj 34 317 del 2000;
#X text 101 317 wait 2 seconds;
#X msg 57 257 0 0.5;
#X text 96 78 ------------------------------------------------------------
;
#X obj 34 177 t b b b;
#X msg 80 207 0 2000;
#X obj 80 227 s \$1-MUSIC-native_play-vol;
#X text 186 34 OVERTURE DREAM ONLY;
#X text 281 229 Fades down Native app sounds;
#X connect 0 0 8 0;
#X connect 6 0 2 0;
#X connect 8 0 15 0;
#X connect 11 0 6 0;
#X connect 13 0 3 0;
#X connect 15 0 11 0;
#X connect 15 1 13 0;
#X connect 15 2 16 0;
#X connect 16 0 17 0;
#X restore 25 78 pd APP_EJECT;
#X text 58 25 APP EJECTS;
#X text 117 78 active/idle/eject process;
#X connect 0 0 1 0;
