#N canvas 0 22 255 245 10;
#X obj 31 154 f 0;
#X obj 65 154 + 1;
#X obj 31 184 s \$1-tick;
#X obj 63 64 60000;
#X obj 63 85 / \$2;
#X obj 63 106 / 8;
#X obj 31 134 metro 100;
#X obj 31 44 t b b;
#X obj 31 24 r \$1-SCENEINIT-fromapp;
#X connect 0 0 1 0;
#X connect 0 0 2 0;
#X connect 1 0 0 1;
#X connect 3 0 4 0;
#X connect 4 0 5 0;
#X connect 5 0 6 1;
#X connect 6 0 0 0;
#X connect 7 0 6 0;
#X connect 7 1 3 0;
#X connect 8 0 7 0;
