#N canvas 157 124 1231 575 10;
#X obj 445 98 \$1;
#X obj 444 270 throw~ \$1-LEFT;
#X obj 555 271 throw~ \$1-RIGHT;
#X obj 444 164 s_fplaytable2;
#X obj 302 47 t b b;
#X msg 445 119 \$1-wavesloop;
#X obj 301 75 \$1;
#X obj 301 117 s_fplaytable2;
#X msg 301 96 \$1-wavesstart;
#X obj 302 26 del 1000;
#X obj 444 185 *~ 0.35;
#X obj 501 186 *~ 0.35;
#X obj 302 5 r \$1-SCENEINIT-fromapp;
#X obj 734 57 r \$1-tick;
#X obj 734 120 \$1;
#X obj 734 268 throw~ \$1-LEFT;
#X obj 845 269 throw~ \$1-RIGHT;
#X obj 734 162 s_fplaytable2;
#X msg 734 141 \$1-strings;
#X obj 734 78 mod 2000;
#X obj 734 99 sel 300;
#X obj 478 246 *~ 0.75;
#X obj 425 246 *~ 0.75;
#X obj 732 211 *~ 0.3;
#X obj 842 213 *~ 0.3;
#X connect 0 0 5 0;
#X connect 3 0 10 0;
#X connect 3 1 11 0;
#X connect 3 2 0 0;
#X connect 4 0 6 0;
#X connect 4 1 0 0;
#X connect 5 0 3 0;
#X connect 6 0 8 0;
#X connect 7 0 22 0;
#X connect 7 1 21 0;
#X connect 8 0 7 0;
#X connect 9 0 4 0;
#X connect 10 0 22 0;
#X connect 11 0 21 0;
#X connect 12 0 9 0;
#X connect 13 0 19 0;
#X connect 14 0 18 0;
#X connect 17 0 23 0;
#X connect 17 1 24 0;
#X connect 18 0 17 0;
#X connect 19 0 20 0;
#X connect 20 0 14 0;
#X connect 21 0 2 0;
#X connect 22 0 1 0;
#X connect 23 0 15 0;
#X connect 24 0 16 0;
