#N canvas 80 33 1200 890 10;
#X obj 176 709 throw~ \$1-REVERB;
#X obj 29 710 throw~ \$1-LEFT;
#X obj 381 371 hip~ 600;
#X obj 658 370 hip~ 800;
#X obj 193 16 r~ \$1-INPUT;
#X obj 353 707 throw~ \$1-RIGHT;
#X obj 382 279 delwrite~ \$0-Default_Del1 500;
#X obj 661 281 delwrite~ \$0-Default_Del2 500;
#X obj 193 38 hip~ 200;
#N canvas 248 82 950 777 glitch 0;
#X obj 119 258 inlet~;
#X obj 477 252 inlet~;
#X obj 121 384 e_pitchshift;
#X msg 202 357 pitch \$1;
#X obj 201 119 sel 0;
#X obj 121 445 e_repeater repea;
#X obj 476 384 e_pitchshift;
#X msg 557 357 pitch \$1;
#X obj 557 253 random 40;
#X obj 557 279 - 20;
#X obj 477 447 e_repeater repea;
#X obj 202 302 pack \$1 \$2;
#X obj 269 215 random 2000;
#X obj 202 279 - 24;
#X obj 624 233 random 2000;
#X obj 557 307 pack \$1 \$2;
#X obj 472 504 outlet~ RIGHT;
#X obj 120 504 outlet~ LEFT;
#X obj 309 -32 r \$1-tick;
#X msg 352 22 32;
#X obj 352 -4 loadbang;
#X obj 201 253 random 48;
#X obj 202 323 line;
#X obj 557 328 line;
#X obj 269 263 clip 500 10000;
#X obj 624 279 clip 500 10000;
#X obj 557 181 t b b b;
#X obj 200 189 t b b b;
#X obj 230 381 random 2000;
#X obj 585 383 random 2000;
#X obj 216 410 max 40;
#X obj 585 409 max 40;
#X obj 309 47 mod 32;
#X obj 267 139 random 16;
#X obj 201 140 t b b;
#X obj 637 106 random 16;
#X obj 557 126 t b b;
#X obj 637 127 + 16;
#X obj 557 105 sel 16;
#X obj 309 68 t f f;
#X connect 0 0 2 0;
#X connect 1 0 6 0;
#X connect 2 0 5 0;
#X connect 3 0 2 1;
#X connect 4 0 34 0;
#X connect 5 0 17 0;
#X connect 6 0 10 0;
#X connect 7 0 6 1;
#X connect 8 0 9 0;
#X connect 9 0 15 0;
#X connect 10 0 16 0;
#X connect 11 0 22 0;
#X connect 12 0 24 0;
#X connect 13 0 11 0;
#X connect 14 0 25 0;
#X connect 15 0 23 0;
#X connect 18 0 32 0;
#X connect 20 0 19 0;
#X connect 21 0 13 0;
#X connect 22 0 3 0;
#X connect 23 0 7 0;
#X connect 24 0 11 1;
#X connect 25 0 15 1;
#X connect 26 0 8 0;
#X connect 26 1 29 0;
#X connect 26 2 14 0;
#X connect 27 0 21 0;
#X connect 27 1 28 0;
#X connect 27 2 12 0;
#X connect 28 0 30 0;
#X connect 29 0 31 0;
#X connect 30 0 5 1;
#X connect 31 0 10 1;
#X connect 32 0 39 0;
#X connect 33 0 4 1;
#X connect 34 0 27 0;
#X connect 34 1 33 0;
#X connect 35 0 37 0;
#X connect 36 0 26 0;
#X connect 36 1 35 0;
#X connect 37 0 38 1;
#X connect 38 0 36 0;
#X connect 39 0 4 0;
#X connect 39 1 38 0;
#X restore 43 181 pd glitch;
#X obj 615 252 e_freqshift;
#X obj 381 252 e_freqshift;
#X obj 555 164 loadbang;
#X obj 382 322 *~ 0.75;
#X obj 661 324 *~ 0.75;
#X msg 692 226 freq -100;
#X msg 459 227 freq -100;
#X obj 40 211 lop~ 3000;
#X obj 115 208 lop~ 3000;
#X obj 195 63 *~ 0.7;
#X msg 551 579 1;
#X obj 529 623 lop~ 0.05;
#X obj 30 681 *~;
#X obj 353 682 *~;
#X obj 177 686 *~;
#X obj 661 301 delread~ \$0-Default_Del2 200;
#X obj 382 301 delread~ \$0-Default_Del1 100;
#X obj 381 349 lop~ 3000;
#X obj 661 345 lop~ 3000;
#X obj 559 528 r \$1-SCENEINIT-fromapp;
#X obj 601 570 loadbang;
#X msg 601 591 0;
#X obj 381 397 *~ 0.6;
#X obj 659 396 *~ 0.6;
#X connect 2 0 11 0;
#X connect 2 0 32 0;
#X connect 3 0 10 0;
#X connect 3 0 33 0;
#X connect 4 0 8 0;
#X connect 8 0 19 0;
#X connect 8 0 9 0;
#X connect 8 0 9 1;
#X connect 8 0 22 0;
#X connect 8 0 24 0;
#X connect 9 0 17 0;
#X connect 9 1 18 0;
#X connect 10 0 7 0;
#X connect 11 0 6 0;
#X connect 12 0 16 0;
#X connect 12 0 15 0;
#X connect 13 0 27 0;
#X connect 14 0 28 0;
#X connect 15 0 10 1;
#X connect 16 0 11 1;
#X connect 17 0 22 0;
#X connect 17 0 24 0;
#X connect 18 0 23 0;
#X connect 18 0 24 0;
#X connect 19 0 10 0;
#X connect 19 0 11 0;
#X connect 20 0 21 0;
#X connect 21 0 23 1;
#X connect 21 0 24 1;
#X connect 21 0 22 1;
#X connect 22 0 1 0;
#X connect 23 0 5 0;
#X connect 24 0 0 0;
#X connect 25 0 14 0;
#X connect 26 0 13 0;
#X connect 27 0 2 0;
#X connect 28 0 3 0;
#X connect 29 0 20 0;
#X connect 30 0 31 0;
#X connect 31 0 21 0;
#X connect 32 0 22 0;
#X connect 32 0 24 0;
#X connect 33 0 22 0;
#X connect 33 0 24 0;
