#N canvas 119 68 1273 821 10;
#X obj 73 -24 r~ \$1-INPUT;
#X obj 256 -88 r \$1-tick;
#X obj 257 36 sel 0 1;
#X msg 257 62 start;
#X msg 468 95 start;
#X obj 128 329 s_playtable;
#X obj 127 234 \$1;
#X obj 266 726 throw~ \$1-LEFT;
#X obj 442 733 throw~ \$1-RIGHT;
#X obj -117 673 throw~ \$1-REVERB;
#X obj 128 211 t b b b;
#X obj 131 454 *~;
#X msg 180 406 0;
#X obj 180 385 del 70;
#X obj 149 434 lop~ 15;
#X obj 342 332 s_playtable;
#X obj 341 237 \$1;
#X obj 342 214 t b b b;
#X obj 345 447 *~;
#X msg 394 399 0;
#X obj 394 378 del 70;
#X obj 363 427 lop~ 15;
#X obj 256 -8 f;
#X obj 291 -8 + 1;
#X obj 256 13 mod 2;
#X obj 256 -46 sel 0;
#X obj 126 307 list trim;
#X obj 343 307 list trim;
#X obj 518 222 pack f f;
#X obj 343 286 list append;
#X obj 126 286 list append;
#X obj 282 144 u_record \$1-slowbuffer2 5000;
#X obj 74 144 u_record \$1-slowbuffer1 5000;
#X msg 339 261 \$1-slowbuffer2 1 -1;
#X msg 125 259 \$1-slowbuffer1 1 -1;
#X obj 515 173 loadbang;
#X obj -118 588 lop~ 3000;
#X obj 738 338 sel 0;
#X obj 738 296 r \$1-tick;
#X obj 739 443 list prepend;
#X obj 739 464 list trim;
#X obj 826 384 f;
#X obj 858 386 + 1;
#X obj 826 405 mod 2;
#X obj 739 485 route 0 1;
#X obj 738 359 t b b b;
#X obj 738 317 mod 32;
#X obj 738 385 random 20;
#X obj 738 406 - 10;
#N canvas 0 22 701 308 delayone 0;
#X obj 65 39 inlet~;
#X obj 60 226 outlet~;
#X obj 239 39 inlet pitch;
#X obj 158 87 e_pitchshift;
#X msg 239 64 pitch \$1;
#X obj 158 208 vd~ dreamdelay;
#X obj 64 114 hip~ 80;
#X obj 64 135 lop~ 4000;
#X obj 160 184 sig~;
#X obj 157 115 delwrite~ dreamdelay 3000;
#X msg 159 162 888;
#X obj 159 140 loadbang;
#X obj 63 159 *~ 0.75;
#X obj 411 38 inlet delaytime;
#X connect 0 0 6 0;
#X connect 2 0 4 0;
#X connect 3 0 9 0;
#X connect 4 0 3 1;
#X connect 5 0 6 0;
#X connect 6 0 7 0;
#X connect 7 0 12 0;
#X connect 8 0 5 0;
#X connect 10 0 8 0;
#X connect 11 0 10 0;
#X connect 12 0 3 0;
#X connect 12 0 1 0;
#X connect 13 0 8 0;
#X restore 611 521 pd delayone;
#N canvas 0 22 623 318 delaytwo 0;
#X obj 127 73 e_pitchshift;
#X msg 209 47 pitch \$1;
#X obj 33 100 hip~ 80;
#X obj 33 121 lop~ 4000;
#X obj 122 187 vd~ dreamdelay2;
#X obj 123 164 sig~;
#X obj 126 96 delwrite~ dreamdelay2 3000;
#X msg 125 142 1111;
#X obj 125 122 loadbang;
#X obj 32 20 inlet~;
#X obj 209 24 inlet pitch;
#X obj 31 232 outlet~;
#X obj 32 146 *~ 0.75;
#X obj 394 24 inlet delaytime;
#X connect 0 0 6 0;
#X connect 1 0 0 1;
#X connect 2 0 3 0;
#X connect 3 0 12 0;
#X connect 4 0 2 0;
#X connect 5 0 4 0;
#X connect 7 0 5 0;
#X connect 8 0 7 0;
#X connect 9 0 2 0;
#X connect 10 0 1 0;
#X connect 12 0 0 0;
#X connect 12 0 11 0;
#X connect 13 0 5 0;
#X restore 737 523 pd delaytwo;
#X obj 611 489 *~ 1;
#X obj 739 546 lop~ 6000;
#X obj 611 542 lop~ 6000;
#X obj 256 -67 mod 16;
#X msg 517 196 810;
#X obj -113 617 hip~ 50;
#X obj 915 336 sel 0;
#X obj 915 294 r \$1-tick;
#X obj 916 441 list prepend;
#X obj 916 462 list trim;
#X obj 1003 382 f;
#X obj 1035 384 + 1;
#X obj 1003 403 mod 2;
#X obj 916 483 route 0 1;
#X obj 915 357 t b b b;
#X obj 915 383 random 1500;
#X obj 915 315 mod 200;
#X obj 915 404 + 500;
#X obj 267 701 *~;
#X obj 443 706 *~;
#X obj 1001 599 loadbang;
#X msg 1001 620 1;
#X obj -118 649 *~;
#X obj -43 608 loadbang;
#X msg -43 629 0.5;
#X msg 1049 622 0;
#X obj -43 649 lop~ 0.05;
#X obj 75 17 *~ 2;
#X msg 151 408 0.8;
#X msg 365 401 0.8;
#X obj 1000 641 lop~ 0.01;
#X obj 344 491 *~ 0.5;
#X obj 139 492 *~ 0.5;
#X obj 495 615 *~ 0.1;
#X obj 552 616 *~ 0.1;
#X obj 461 585 *~ 0.8;
#X obj 685 606 *~ 0.8;
#X connect 0 0 78 0;
#X connect 1 0 54 0;
#X connect 2 0 3 0;
#X connect 2 0 17 0;
#X connect 2 1 4 0;
#X connect 2 1 10 0;
#X connect 3 0 32 1;
#X connect 4 0 31 1;
#X connect 5 0 11 0;
#X connect 6 0 34 0;
#X connect 10 0 6 0;
#X connect 10 1 79 0;
#X connect 10 2 13 0;
#X connect 11 0 51 0;
#X connect 11 0 83 0;
#X connect 12 0 14 0;
#X connect 13 0 12 0;
#X connect 14 0 11 1;
#X connect 15 0 18 0;
#X connect 16 0 33 0;
#X connect 17 0 16 0;
#X connect 17 1 80 0;
#X connect 17 2 20 0;
#X connect 18 0 51 0;
#X connect 18 0 82 0;
#X connect 19 0 21 0;
#X connect 20 0 19 0;
#X connect 21 0 18 1;
#X connect 22 0 23 0;
#X connect 22 0 24 0;
#X connect 23 0 22 1;
#X connect 24 0 2 0;
#X connect 25 0 22 0;
#X connect 26 0 5 0;
#X connect 27 0 15 0;
#X connect 28 0 29 1;
#X connect 28 0 30 1;
#X connect 28 0 20 1;
#X connect 28 0 13 1;
#X connect 29 0 27 0;
#X connect 30 0 26 0;
#X connect 33 0 29 0;
#X connect 34 0 30 0;
#X connect 35 0 55 0;
#X connect 36 0 56 0;
#X connect 37 0 45 0;
#X connect 38 0 46 0;
#X connect 39 0 40 0;
#X connect 40 0 44 0;
#X connect 41 0 43 0;
#X connect 41 0 42 0;
#X connect 42 0 41 1;
#X connect 43 0 39 1;
#X connect 44 0 49 1;
#X connect 44 1 50 1;
#X connect 45 0 47 0;
#X connect 45 1 41 0;
#X connect 46 0 37 0;
#X connect 47 0 48 0;
#X connect 48 0 39 0;
#X connect 49 0 53 0;
#X connect 50 0 52 0;
#X connect 51 0 49 0;
#X connect 51 0 50 0;
#X connect 52 0 85 0;
#X connect 52 0 87 0;
#X connect 53 0 84 0;
#X connect 53 0 86 0;
#X connect 54 0 25 0;
#X connect 55 0 28 0;
#X connect 55 0 28 1;
#X connect 56 0 73 0;
#X connect 57 0 65 0;
#X connect 58 0 67 0;
#X connect 59 0 60 0;
#X connect 60 0 64 0;
#X connect 61 0 63 0;
#X connect 61 0 62 0;
#X connect 62 0 61 1;
#X connect 63 0 59 1;
#X connect 64 0 49 2;
#X connect 64 1 50 2;
#X connect 65 0 66 0;
#X connect 65 1 61 0;
#X connect 66 0 68 0;
#X connect 67 0 57 0;
#X connect 68 0 59 0;
#X connect 69 0 7 0;
#X connect 70 0 8 0;
#X connect 71 0 72 0;
#X connect 72 0 81 0;
#X connect 73 0 9 0;
#X connect 74 0 75 0;
#X connect 75 0 77 0;
#X connect 76 0 81 0;
#X connect 77 0 73 1;
#X connect 78 0 32 0;
#X connect 78 0 31 0;
#X connect 79 0 14 0;
#X connect 80 0 21 0;
#X connect 81 0 70 1;
#X connect 81 0 69 1;
#X connect 82 0 69 0;
#X connect 82 0 70 0;
#X connect 83 0 69 0;
#X connect 83 0 70 0;
#X connect 83 0 36 0;
#X connect 84 0 70 0;
#X connect 85 0 69 0;
#X connect 86 0 69 0;
#X connect 87 0 70 0;
