#N canvas 192 175 1027 747 10;
#X declare -path .;
#X declare -path abs;
#X declare -path samples;
#X declare -path rj;
#X obj 28 90 declare -path .;
#N canvas 0 22 588 274 LICENSE 0;
#X text 79 84 (c) 2008 Reality Jockey;
#X text 57 36 Released under the GNU General Public License ver. 3
or later. See the file LICENSE.txt for the full text.;
#X restore 28 60 pd LICENSE;
#X obj 28 120 declare -path abs;
#X obj 28 150 declare -path samples;
#X obj 27 182 declare -path rj;
#X obj 234 69 loadbang;
#X obj 234 90 t b b;
#X obj 234 178 s \$1-IO-mainmix_vol;
#X obj 234 279 r #rjdj_architect_in;
#X msg 436 464 scene_init bang;
#X obj 436 484 s #rjdj_detector_out;
#X text 234 46 Scene Init (waits for app);
#X text 232 260 App init (loads scene properly);
#X obj 234 657 s \$1-IO-mainmix_vol;
#X msg 234 155 0 80;
#X obj 266 594 s \$1-SCENEINIT-fromapp;
#X msg 234 634 1 0.2;
#X text 283 634 Turns up main_mix;
#X text 426 594 loads scene;
#X msg 234 374 0;
#X msg 413 373 1;
#X text 426 310 Infinity Switch (decides is scene controls itself or
not);
#X text 553 464 queries current state from rj_detector;
#X text 436 120 specific to this scene;
#X obj 260 115 cnv 15 170 26 empty empty empty 20 12 0 14 -232576 -66577
0;
#X obj 266 120 init_scene_specific \$1;
#X obj 459 424 s \$1-CONTROLLER-detector_spigot;
#X obj 234 310 sel scene_init_infinity_on;
#X obj 413 330 sel scene_init_infinity_off;
#X text 517 295 Only on load;
#X obj 413 394 t b b f;
#X obj 257 524 s \$1-CONTROLLER-infinity_switch;
#X obj 234 395 t b f f;
#X obj 234 564 t b b;
#X text 483 525 if infinity on - switch to scene_active;
#X connect 5 0 6 0;
#X connect 6 0 14 0;
#X connect 6 1 25 0;
#X connect 8 0 27 0;
#X connect 9 0 10 0;
#X connect 14 0 7 0;
#X connect 16 0 13 0;
#X connect 19 0 32 0;
#X connect 20 0 30 0;
#X connect 27 0 19 0;
#X connect 27 1 28 0;
#X connect 28 0 20 0;
#X connect 30 0 33 0;
#X connect 30 1 9 0;
#X connect 30 2 26 0;
#X connect 32 0 33 0;
#X connect 32 1 31 0;
#X connect 32 2 26 0;
#X connect 33 0 16 0;
#X connect 33 1 15 0;
