#N canvas 0 159 1280 891 10;
#N canvas 67 92 1131 768 stringstexture 0;
#X obj 31 490 *~;
#X obj 31 392 +~;
#X obj 30 344 samphold~;
#X obj 31 368 *~;
#X obj 196 399 r~ phase;
#X obj 118 345 r~ phase;
#X obj 66 369 r~ phase;
#X obj 196 423 -~ 0.5;
#X obj 196 447 *~ 0.5;
#X obj 196 470 cos~;
#X obj 69 392 r~ read-pt;
#X obj 30 519 +~;
#X obj 30 319 r chunk-size;
#X obj 30 442 +~ 1;
#X obj 282 499 *~;
#X obj 282 401 +~;
#X obj 281 353 samphold~;
#X obj 282 377 *~;
#X obj 447 432 -~ 0.5;
#X obj 447 456 *~ 0.5;
#X obj 447 479 cos~;
#X obj 320 401 r~ read-pt;
#X obj 281 328 r chunk-size;
#X obj 281 451 +~ 1;
#X obj 369 354 r~ phase2;
#X obj 317 378 r~ phase2;
#X obj 447 408 r~ phase2;
#X obj 31 416 *~ 22050;
#X obj 280 425 *~ 22050;
#X obj 31 553 *~ 1;
#X obj 32 578 hip~ 80;
#X obj 30 466 tabread4~ \$1-strings-1;
#X obj 282 475 tabread4~ \$1-strings-1;
#X obj 549 484 *~;
#X obj 549 386 +~;
#X obj 548 338 samphold~;
#X obj 549 362 *~;
#X obj 714 393 r~ phase;
#X obj 636 339 r~ phase;
#X obj 584 363 r~ phase;
#X obj 714 417 -~ 0.5;
#X obj 714 441 *~ 0.5;
#X obj 714 464 cos~;
#X obj 587 386 r~ read-pt;
#X obj 548 513 +~;
#X obj 548 313 r chunk-size;
#X obj 548 436 +~ 1;
#X obj 800 493 *~;
#X obj 800 395 +~;
#X obj 799 347 samphold~;
#X obj 800 371 *~;
#X obj 965 426 -~ 0.5;
#X obj 965 450 *~ 0.5;
#X obj 965 473 cos~;
#X obj 838 395 r~ read-pt;
#X obj 799 322 r chunk-size;
#X obj 799 445 +~ 1;
#X obj 887 348 r~ phase2;
#X obj 835 372 r~ phase2;
#X obj 965 402 r~ phase2;
#X obj 549 410 *~ 22050;
#X obj 798 419 *~ 22050;
#X obj 549 547 *~ 1;
#X obj 550 572 hip~ 80;
#X obj 548 460 tabread4~ \$1-strings-2;
#X obj 799 469 tabread4~ \$1-strings-2;
#X obj 34 691 outlet~ LEFT;
#X obj 823 700 outlet~ REVERB;
#X obj 549 702 outlet~ RIGHT;
#X obj 914 575 inlet volume;
#X obj 72 663 lop~ 80;
#X obj 33 660 *~;
#X obj 620 666 lop~ 80;
#X obj 549 667 *~;
#X obj 867 667 lop~ 80;
#X obj 820 668 *~;
#X obj 914 596 t f f f;
#X obj 74 618 - 0.2;
#X obj 74 639 max 0;
#X obj 618 623 - 0.2;
#X obj 618 644 max 0;
#X connect 0 0 11 0;
#X connect 1 0 27 0;
#X connect 2 0 3 0;
#X connect 3 0 1 0;
#X connect 4 0 7 0;
#X connect 5 0 2 1;
#X connect 6 0 3 1;
#X connect 7 0 8 0;
#X connect 8 0 9 0;
#X connect 9 0 0 1;
#X connect 10 0 1 1;
#X connect 11 0 29 0;
#X connect 12 0 2 0;
#X connect 13 0 31 0;
#X connect 14 0 11 1;
#X connect 15 0 28 0;
#X connect 16 0 17 0;
#X connect 17 0 15 0;
#X connect 18 0 19 0;
#X connect 19 0 20 0;
#X connect 20 0 14 1;
#X connect 21 0 15 1;
#X connect 22 0 16 0;
#X connect 23 0 32 0;
#X connect 24 0 16 1;
#X connect 25 0 17 1;
#X connect 26 0 18 0;
#X connect 27 0 13 0;
#X connect 28 0 23 0;
#X connect 29 0 30 0;
#X connect 30 0 71 0;
#X connect 30 0 75 0;
#X connect 31 0 0 0;
#X connect 32 0 14 0;
#X connect 33 0 44 0;
#X connect 34 0 60 0;
#X connect 35 0 36 0;
#X connect 36 0 34 0;
#X connect 37 0 40 0;
#X connect 38 0 35 1;
#X connect 39 0 36 1;
#X connect 40 0 41 0;
#X connect 41 0 42 0;
#X connect 42 0 33 1;
#X connect 43 0 34 1;
#X connect 44 0 62 0;
#X connect 45 0 35 0;
#X connect 46 0 64 0;
#X connect 47 0 44 1;
#X connect 48 0 61 0;
#X connect 49 0 50 0;
#X connect 50 0 48 0;
#X connect 51 0 52 0;
#X connect 52 0 53 0;
#X connect 53 0 47 1;
#X connect 54 0 48 1;
#X connect 55 0 49 0;
#X connect 56 0 65 0;
#X connect 57 0 49 1;
#X connect 58 0 50 1;
#X connect 59 0 51 0;
#X connect 60 0 46 0;
#X connect 61 0 56 0;
#X connect 62 0 63 0;
#X connect 63 0 73 0;
#X connect 63 0 75 0;
#X connect 64 0 33 0;
#X connect 65 0 47 0;
#X connect 69 0 76 0;
#X connect 70 0 71 1;
#X connect 71 0 66 0;
#X connect 72 0 73 1;
#X connect 73 0 68 0;
#X connect 74 0 75 1;
#X connect 75 0 67 0;
#X connect 76 0 77 0;
#X connect 76 1 79 0;
#X connect 76 2 74 0;
#X connect 77 0 78 0;
#X connect 78 0 70 0;
#X connect 79 0 80 0;
#X connect 80 0 72 0;
#X restore 113 397 pd stringstexture;
#N canvas 0 22 480 440 exp 0;
#X obj 70 141 pow;
#X obj 86 201 t b f;
#X obj 86 171 r precession;
#X obj 70 81 / 120;
#X obj 70 101 t b f;
#X obj 70 121 2;
#X obj 70 231 -;
#X obj 104 271 t b f;
#X obj 70 301 /;
#X obj 66 50 inlet;
#X obj 70 329 outlet;
#X obj 114 244 r chunk-size;
#X connect 0 0 6 0;
#X connect 1 0 6 0;
#X connect 1 1 6 1;
#X connect 2 0 1 0;
#X connect 3 0 4 0;
#X connect 4 0 5 0;
#X connect 4 1 0 1;
#X connect 5 0 0 0;
#X connect 6 0 8 0;
#X connect 7 0 8 0;
#X connect 7 1 8 1;
#X connect 8 0 10 0;
#X connect 9 0 3 0;
#X connect 11 0 7 0;
#X restore 470 -9 pd exp;
#X floatatom 123 -87 4 0 100 0 - - -;
#X obj 471 58 s~ phase;
#X obj 123 -44 s chunk-size;
#X text 229 -51 chunk size;
#X text 220 -39 in seconds;
#X obj 471 32 phasor~;
#X obj 122 152 s~ read-pt;
#X obj 558 51 +~ 0.5;
#X obj 559 77 wrap~;
#X obj 559 102 s~ phase2;
#X text 501 -80 <-- transposition \, halftones/10;
#X obj 123 -67 * 0.001;
#X obj 122 104 phasor~;
#X obj 130 58 s precession;
#X obj 122 35 * 0.01;
#X text 152 4 <-- precession \, percent;
#X obj 123 -131 loadbang;
#X text 273 -116 TIME COMPRESSION/EXPANSION BY LOOPED SAMPLING;
#X floatatom 254 73 4 0 900 0 - - -;
#X obj 254 93 * 0.001;
#X text 163 -87 <-- chunk size (msec);
#X obj 254 118 t b f;
#X obj 254 27 loadbang;
#X text 297 69 <-- loop length;
#X text 338 84 (msec);
#X obj 122 128 *~;
#X obj 122 80 /;
#X msg 468 -34 0;
#X obj 469 -57 loadbang;
#X msg 123 13 25;
#X obj 123 -10 loadbang;
#X msg 254 49 60000;
#X msg 123 -109 75;
#X obj 252 503 throw~ \$1-LEFT;
#X obj 364 505 throw~ \$1-RIGHT;
#X obj 496 505 throw~ \$1-REVERB;
#N canvas 265 74 1252 794 hornstexture 0;
#X obj 31 490 *~;
#X obj 31 392 +~;
#X obj 30 344 samphold~;
#X obj 31 368 *~;
#X obj 196 399 r~ phase;
#X obj 118 345 r~ phase;
#X obj 66 369 r~ phase;
#X obj 196 423 -~ 0.5;
#X obj 196 447 *~ 0.5;
#X obj 196 470 cos~;
#X obj 69 392 r~ read-pt;
#X obj 30 519 +~;
#X obj 30 319 r chunk-size;
#X obj 30 442 +~ 1;
#X obj 282 499 *~;
#X obj 282 401 +~;
#X obj 281 353 samphold~;
#X obj 282 377 *~;
#X obj 447 432 -~ 0.5;
#X obj 447 456 *~ 0.5;
#X obj 447 479 cos~;
#X obj 320 401 r~ read-pt;
#X obj 281 328 r chunk-size;
#X obj 281 451 +~ 1;
#X obj 369 354 r~ phase2;
#X obj 317 378 r~ phase2;
#X obj 447 408 r~ phase2;
#X obj 31 416 *~ 22050;
#X obj 280 425 *~ 22050;
#X obj 31 553 *~ 1;
#X obj 549 484 *~;
#X obj 549 386 +~;
#X obj 548 338 samphold~;
#X obj 549 362 *~;
#X obj 714 393 r~ phase;
#X obj 636 339 r~ phase;
#X obj 584 363 r~ phase;
#X obj 714 417 -~ 0.5;
#X obj 714 441 *~ 0.5;
#X obj 714 464 cos~;
#X obj 587 386 r~ read-pt;
#X obj 548 513 +~;
#X obj 548 313 r chunk-size;
#X obj 548 436 +~ 1;
#X obj 800 493 *~;
#X obj 800 395 +~;
#X obj 799 347 samphold~;
#X obj 800 371 *~;
#X obj 965 426 -~ 0.5;
#X obj 965 450 *~ 0.5;
#X obj 965 473 cos~;
#X obj 838 395 r~ read-pt;
#X obj 799 322 r chunk-size;
#X obj 799 445 +~ 1;
#X obj 887 348 r~ phase2;
#X obj 835 372 r~ phase2;
#X obj 965 402 r~ phase2;
#X obj 549 410 *~ 22050;
#X obj 798 419 *~ 22050;
#X obj 549 547 *~ 1;
#X obj 30 466 tabread4~ \$1-hornspad-1;
#X obj 282 475 tabread4~ \$1-hornspad-1;
#X obj 548 460 tabread4~ \$1-hornspad-2;
#X obj 799 468 tabread4~ \$1-hornspad-2;
#X obj 32 578 hip~ 80;
#X obj 550 572 hip~ 80;
#X obj 34 691 outlet~ LEFT;
#X obj 823 700 outlet~ REVERB;
#X obj 549 702 outlet~ RIGHT;
#X obj 914 575 inlet volume;
#X obj 72 663 lop~ 80;
#X obj 33 660 *~;
#X obj 620 666 lop~ 80;
#X obj 549 667 *~;
#X obj 867 667 lop~ 80;
#X obj 820 668 *~;
#X obj 914 596 t f f f;
#X obj 74 618 - 0.2;
#X obj 74 639 max 0;
#X obj 618 623 - 0.2;
#X obj 618 644 max 0;
#X connect 0 0 11 0;
#X connect 1 0 27 0;
#X connect 2 0 3 0;
#X connect 3 0 1 0;
#X connect 4 0 7 0;
#X connect 5 0 2 1;
#X connect 6 0 3 1;
#X connect 7 0 8 0;
#X connect 8 0 9 0;
#X connect 9 0 0 1;
#X connect 10 0 1 1;
#X connect 11 0 29 0;
#X connect 12 0 2 0;
#X connect 13 0 60 0;
#X connect 14 0 11 1;
#X connect 15 0 28 0;
#X connect 16 0 17 0;
#X connect 17 0 15 0;
#X connect 18 0 19 0;
#X connect 19 0 20 0;
#X connect 20 0 14 1;
#X connect 21 0 15 1;
#X connect 22 0 16 0;
#X connect 23 0 61 0;
#X connect 24 0 16 1;
#X connect 25 0 17 1;
#X connect 26 0 18 0;
#X connect 27 0 13 0;
#X connect 28 0 23 0;
#X connect 29 0 64 0;
#X connect 30 0 41 0;
#X connect 31 0 57 0;
#X connect 32 0 33 0;
#X connect 33 0 31 0;
#X connect 34 0 37 0;
#X connect 35 0 32 1;
#X connect 36 0 33 1;
#X connect 37 0 38 0;
#X connect 38 0 39 0;
#X connect 39 0 30 1;
#X connect 40 0 31 1;
#X connect 41 0 59 0;
#X connect 42 0 32 0;
#X connect 43 0 62 0;
#X connect 44 0 41 1;
#X connect 45 0 58 0;
#X connect 46 0 47 0;
#X connect 47 0 45 0;
#X connect 48 0 49 0;
#X connect 49 0 50 0;
#X connect 50 0 44 1;
#X connect 51 0 45 1;
#X connect 52 0 46 0;
#X connect 53 0 63 0;
#X connect 54 0 46 1;
#X connect 55 0 47 1;
#X connect 56 0 48 0;
#X connect 57 0 43 0;
#X connect 58 0 53 0;
#X connect 59 0 65 0;
#X connect 60 0 0 0;
#X connect 61 0 14 0;
#X connect 62 0 30 0;
#X connect 63 0 44 0;
#X connect 64 0 71 0;
#X connect 64 0 75 0;
#X connect 65 0 73 0;
#X connect 65 0 75 0;
#X connect 69 0 76 0;
#X connect 70 0 71 1;
#X connect 71 0 66 0;
#X connect 72 0 73 1;
#X connect 73 0 68 0;
#X connect 74 0 75 1;
#X connect 75 0 67 0;
#X connect 76 0 77 0;
#X connect 76 1 79 0;
#X connect 76 2 74 0;
#X connect 77 0 78 0;
#X connect 78 0 70 0;
#X connect 79 0 80 0;
#X connect 80 0 72 0;
#X restore 317 398 pd hornstexture;
#N canvas 0 22 1033 478 rumble 0;
#X obj 308 91 noise~;
#X obj 436 132 loadbang;
#X text 404 192 gain;
#X text 453 192 freq;
#N canvas 0 22 450 300 megalop 0;
#X obj 210 38 inlet gain;
#X obj 341 38 inlet freq;
#X obj 85 40 inlet~;
#X obj 85 102 lop~ \$1;
#X obj 85 127 lop~ \$1;
#X obj 85 150 lop~ \$1;
#X obj 85 175 lop~ \$1;
#X obj 84 329 outlet~;
#X obj 87 71 *~;
#X connect 0 0 8 1;
#X connect 1 0 3 1;
#X connect 1 0 4 1;
#X connect 1 0 5 1;
#X connect 1 0 6 1;
#X connect 2 0 8 0;
#X connect 3 0 4 0;
#X connect 4 0 5 0;
#X connect 5 0 6 0;
#X connect 6 0 7 0;
#X connect 8 0 3 0;
#X restore 309 208 pd megalop;
#X obj 307 262 outlet~;
#X obj 308 161 *~;
#X obj 381 91 inlet volume;
#X obj 340 161 lop~ 80;
#X msg 409 160 7.5;
#X msg 455 164 100;
#X connect 0 0 6 0;
#X connect 1 0 9 0;
#X connect 1 0 10 0;
#X connect 4 0 5 0;
#X connect 6 0 4 0;
#X connect 7 0 8 0;
#X connect 8 0 6 1;
#X connect 9 0 4 1;
#X connect 10 0 4 2;
#X restore 488 399 pd rumble;
#N canvas 265 74 1252 794 decendingtexture 0;
#X obj 31 490 *~;
#X obj 31 392 +~;
#X obj 30 344 samphold~;
#X obj 31 368 *~;
#X obj 210 399 r~ phase;
#X obj 118 345 r~ phase;
#X obj 66 369 r~ phase;
#X obj 210 423 -~ 0.5;
#X obj 210 447 *~ 0.5;
#X obj 210 470 cos~;
#X obj 30 519 +~;
#X obj 30 319 r chunk-size;
#X obj 30 442 +~ 1;
#X obj 282 499 *~;
#X obj 282 401 +~;
#X obj 281 353 samphold~;
#X obj 282 377 *~;
#X obj 465 431 -~ 0.5;
#X obj 465 455 *~ 0.5;
#X obj 465 478 cos~;
#X obj 281 328 r chunk-size;
#X obj 281 451 +~ 1;
#X obj 369 354 r~ phase2;
#X obj 317 378 r~ phase2;
#X obj 465 407 r~ phase2;
#X obj 31 416 *~ 22050;
#X obj 280 425 *~ 22050;
#X obj 31 553 *~ 1;
#X obj 549 484 *~;
#X obj 549 386 +~;
#X obj 548 338 samphold~;
#X obj 549 362 *~;
#X obj 733 393 r~ phase;
#X obj 636 339 r~ phase;
#X obj 584 363 r~ phase;
#X obj 733 417 -~ 0.5;
#X obj 733 441 *~ 0.5;
#X obj 733 464 cos~;
#X obj 548 513 +~;
#X obj 548 313 r chunk-size;
#X obj 548 436 +~ 1;
#X obj 800 493 *~;
#X obj 800 395 +~;
#X obj 799 347 samphold~;
#X obj 800 371 *~;
#X obj 987 423 -~ 0.5;
#X obj 987 447 *~ 0.5;
#X obj 987 470 cos~;
#X obj 799 322 r chunk-size;
#X obj 799 445 +~ 1;
#X obj 887 348 r~ phase2;
#X obj 835 372 r~ phase2;
#X obj 987 399 r~ phase2;
#X obj 549 410 *~ 22050;
#X obj 798 419 *~ 22050;
#X obj 549 547 *~ 1;
#X obj 32 578 hip~ 80;
#X obj 550 572 hip~ 80;
#X obj 34 691 outlet~ LEFT;
#X obj 823 700 outlet~ REVERB;
#X obj 549 702 outlet~ RIGHT;
#X obj 914 575 inlet volume;
#X obj 72 663 lop~ 80;
#X obj 33 660 *~;
#X obj 620 666 lop~ 80;
#X obj 549 667 *~;
#X obj 867 667 lop~ 80;
#X obj 820 668 *~;
#X obj 914 596 t f f f;
#X obj 74 618 - 0.2;
#X obj 74 639 max 0;
#X obj 618 623 - 0.2;
#X obj 618 644 max 0;
#X obj 30 466 tabread4~ \$1-decending-1;
#X obj 282 476 tabread4~ \$1-decending-1;
#X obj 548 460 tabread4~ \$1-decending-2;
#X obj 799 468 tabread4~ \$1-decending-2;
#X obj 71 390 r~ read-pt2;
#X obj 320 401 r~ read-pt2;
#X obj 587 386 r~ read-pt2;
#X obj 838 395 r~ read-pt2;
#X connect 0 0 10 0;
#X connect 1 0 25 0;
#X connect 2 0 3 0;
#X connect 3 0 1 0;
#X connect 4 0 7 0;
#X connect 5 0 2 1;
#X connect 6 0 3 1;
#X connect 7 0 8 0;
#X connect 8 0 9 0;
#X connect 9 0 0 1;
#X connect 10 0 27 0;
#X connect 11 0 2 0;
#X connect 12 0 73 0;
#X connect 13 0 10 1;
#X connect 14 0 26 0;
#X connect 15 0 16 0;
#X connect 16 0 14 0;
#X connect 17 0 18 0;
#X connect 18 0 19 0;
#X connect 19 0 13 1;
#X connect 20 0 15 0;
#X connect 21 0 74 0;
#X connect 22 0 15 1;
#X connect 23 0 16 1;
#X connect 24 0 17 0;
#X connect 25 0 12 0;
#X connect 26 0 21 0;
#X connect 27 0 56 0;
#X connect 28 0 38 0;
#X connect 29 0 53 0;
#X connect 30 0 31 0;
#X connect 31 0 29 0;
#X connect 32 0 35 0;
#X connect 33 0 30 1;
#X connect 34 0 31 1;
#X connect 35 0 36 0;
#X connect 36 0 37 0;
#X connect 37 0 28 1;
#X connect 38 0 55 0;
#X connect 39 0 30 0;
#X connect 40 0 75 0;
#X connect 41 0 38 1;
#X connect 42 0 54 0;
#X connect 43 0 44 0;
#X connect 44 0 42 0;
#X connect 45 0 46 0;
#X connect 46 0 47 0;
#X connect 47 0 41 1;
#X connect 48 0 43 0;
#X connect 49 0 76 0;
#X connect 50 0 43 1;
#X connect 51 0 44 1;
#X connect 52 0 45 0;
#X connect 53 0 40 0;
#X connect 54 0 49 0;
#X connect 55 0 57 0;
#X connect 56 0 63 0;
#X connect 56 0 67 0;
#X connect 57 0 65 0;
#X connect 57 0 67 0;
#X connect 61 0 68 0;
#X connect 62 0 63 1;
#X connect 63 0 58 0;
#X connect 64 0 65 1;
#X connect 65 0 60 0;
#X connect 66 0 67 1;
#X connect 67 0 59 0;
#X connect 68 0 69 0;
#X connect 68 1 71 0;
#X connect 68 2 66 0;
#X connect 69 0 70 0;
#X connect 70 0 62 0;
#X connect 71 0 72 0;
#X connect 72 0 64 0;
#X connect 73 0 0 0;
#X connect 74 0 13 0;
#X connect 75 0 28 0;
#X connect 76 0 41 0;
#X connect 77 0 1 1;
#X connect 78 0 14 1;
#X connect 79 0 29 1;
#X connect 80 0 42 1;
#X restore 602 399 pd decendingtexture;
#X obj 720 110 phasor~;
#X obj 728 64 s precession;
#X obj 720 41 * 0.01;
#X text 750 10 <-- precession \, percent;
#X floatatom 852 79 4 0 900 0 - - -;
#X obj 852 99 * 0.001;
#X obj 852 124 t b f;
#X obj 852 33 loadbang;
#X text 895 75 <-- loop length;
#X text 936 90 (msec);
#X obj 720 134 *~;
#X obj 720 86 /;
#X msg 721 19 25;
#X obj 721 -4 loadbang;
#X obj 720 158 s~ read-pt2;
#X msg 852 55 8340;
#X obj 286 258 r \$1-mixersettings;
#X obj 286 279 unpack f f f f;
#X obj 113 370 line;
#X obj 317 371 line;
#X obj 489 372 line;
#X obj 602 372 line;
#X msg 113 349 \$1 10000;
#X msg 317 350 \$1 10000;
#X msg 489 351 \$1 10000;
#X msg 602 351 \$1 10000;
#X connect 0 0 35 0;
#X connect 0 1 36 0;
#X connect 0 2 37 0;
#X connect 1 0 7 0;
#X connect 2 0 13 0;
#X connect 7 0 3 0;
#X connect 7 0 9 0;
#X connect 9 0 10 0;
#X connect 10 0 11 0;
#X connect 13 0 4 0;
#X connect 14 0 27 0;
#X connect 16 0 15 0;
#X connect 16 0 28 0;
#X connect 18 0 34 0;
#X connect 20 0 21 0;
#X connect 21 0 23 0;
#X connect 21 0 27 1;
#X connect 23 0 28 0;
#X connect 23 1 28 1;
#X connect 24 0 33 0;
#X connect 27 0 8 0;
#X connect 28 0 14 0;
#X connect 29 0 1 0;
#X connect 30 0 29 0;
#X connect 31 0 16 0;
#X connect 32 0 31 0;
#X connect 33 0 20 0;
#X connect 34 0 2 0;
#X connect 38 0 35 0;
#X connect 38 1 36 0;
#X connect 38 2 37 0;
#X connect 39 0 36 0;
#X connect 39 0 35 0;
#X connect 39 0 37 0;
#X connect 40 0 35 0;
#X connect 40 1 36 0;
#X connect 40 2 37 0;
#X connect 41 0 51 0;
#X connect 43 0 42 0;
#X connect 43 0 52 0;
#X connect 45 0 46 0;
#X connect 46 0 47 0;
#X connect 46 0 51 1;
#X connect 47 0 52 0;
#X connect 47 1 52 1;
#X connect 48 0 56 0;
#X connect 51 0 55 0;
#X connect 52 0 41 0;
#X connect 53 0 43 0;
#X connect 54 0 53 0;
#X connect 56 0 45 0;
#X connect 57 0 58 0;
#X connect 58 0 63 0;
#X connect 58 1 64 0;
#X connect 58 2 65 0;
#X connect 58 3 66 0;
#X connect 59 0 0 0;
#X connect 60 0 38 0;
#X connect 61 0 39 0;
#X connect 62 0 40 0;
#X connect 63 0 59 0;
#X connect 64 0 60 0;
#X connect 65 0 61 0;
#X connect 66 0 62 0;
