#N canvas 305 396 484 359 10;
#X obj 40 40 inlet FROM_RJ_DETECTOR;
#X text 69 318 Output: 0 for scene_active \, 1 for scene_idle;
#X obj 40 64 route motion quiet;
#X obj 214 121 == 0;
#X text 250 123 inverse quiet gives 'loud' as 1;
#X obj 70 288 outlet criteria;
#X obj 70 200 t b f;
#X obj 70 235 ||;
#X msg 187 229 motion;
#X obj 187 259 symbol;
#X obj 187 289 s \$1-CONTROLLER-OR-eventvalue;
#X obj 214 142 t f f;
#X obj 40 128 t f f;
#X obj 187 199 sel 1;
#X obj 246 199 sel 1;
#X msg 246 229 loud;
#X connect 0 0 2 0;
#X connect 2 0 12 0;
#X connect 2 1 3 0;
#X connect 3 0 11 0;
#X connect 6 0 7 0;
#X connect 6 1 7 1;
#X connect 7 0 5 0;
#X connect 8 0 9 0;
#X connect 9 0 10 0;
#X connect 11 0 6 0;
#X connect 11 1 14 0;
#X connect 12 0 7 0;
#X connect 12 1 13 0;
#X connect 13 0 8 0;
#X connect 14 0 15 0;
#X connect 15 0 9 0;
