#N canvas 474 40 602 796 10;
#X obj 171 28 r \$1-tick;
#X msg 235 318 0 0 0 1;
#X obj 170 481 s \$1-mixersettings;
#X msg 171 238 0 0.7 0 0;
#X msg 190 266 0 0 0.7 0;
#X msg 212 294 0.7 0 0.7 0;
#X msg 257 346 0 0.7 0.7 0;
#X msg 278 374 0 0 0 0;
#X obj 170 198 sel 0 1 2 3 4 5 6 7;
#X obj 171 70 sel 0;
#X obj -50 21 loadbang;
#X obj -25 53 del 500;
#X msg -25 74 1;
#X obj 171 105 spigot 0;
#X msg 289 145 clear \, bang;
#X obj 171 48 mod 2056;
#X msg -52 200 0 0.5 0 0;
#X obj 171 145 c_urn 7;
#X msg 274 72 seed 7;
#X obj 274 49 loadbang;
#X connect 0 0 15 0;
#X connect 1 0 2 0;
#X connect 3 0 2 0;
#X connect 4 0 2 0;
#X connect 5 0 2 0;
#X connect 6 0 2 0;
#X connect 7 0 2 0;
#X connect 8 0 3 0;
#X connect 8 1 4 0;
#X connect 8 2 5 0;
#X connect 8 3 1 0;
#X connect 8 4 6 0;
#X connect 8 5 7 0;
#X connect 8 6 7 0;
#X connect 9 0 13 0;
#X connect 10 0 16 0;
#X connect 10 0 11 0;
#X connect 11 0 12 0;
#X connect 12 0 13 1;
#X connect 13 0 17 0;
#X connect 14 0 17 0;
#X connect 15 0 9 0;
#X connect 16 0 2 0;
#X connect 17 0 8 0;
#X connect 17 1 14 0;
#X connect 18 0 13 0;
#X connect 19 0 18 0;
