#N canvas 522 255 558 515 10;
#X declare -path .;
#X declare -path abs;
#X declare -path samples;
#X declare -path rj;
#X text 26 57 System;
#X text 26 173 Samples;
#X text 25 371 Reality Effects;
#X text 24 417 Effects;
#N canvas 0 22 450 300 credits 0;
#X restore 28 31 pd credits;
#X obj 27 437 reverbfx \$0;
#X obj 27 457 delayfx \$0;
#X obj 28 193 samplebank \$0;
#X obj 26 332 sequence \$0;
#X text 25 309 Sequence;
#X text 26 231 Music Player;
#X obj 26 265 music \$0;
#X obj 28 117 timebase \$0 150;
#X obj 28 97 io \$0;
#X obj 27 394 dreaming \$0;
#X obj 28 77 init \$0;
#X obj 28 137 controller \$0;
