#N canvas 416 22 441 619 10;
#X obj 96 54 r \$1-tick;
#X obj 96 166 sel 0;
#X obj 126 217 + 1;
#X obj 96 216 f 0;
#X msg 164 286 clear \, bang;
#X obj 114 196 r \$1-MUSIC-Count-Reset;
#X msg 184 405 0;
#X obj 184 425 s \$1-MUSIC-Count-Reset;
#X obj 96 145 mod 16;
#X obj 96 338 pack f \$1;
#X msg 96 359 \$2-sample\$1;
#X obj 96 379 s_fplaytable2;
#X obj 96 513 throw~ \$1-LEFT;
#X obj 140 481 throw~ \$1-RIGHT;
#X obj 96 237 sel 16;
#X obj 231 538 throw~ \$1-REVERB;
#X obj 232 517 *~ 0.4;
#X obj 96 307 + 1;
#X obj 96 286 c_urn 8;
#X connect 0 0 8 0;
#X connect 1 0 3 0;
#X connect 2 0 3 1;
#X connect 3 0 2 0;
#X connect 3 0 14 0;
#X connect 4 0 18 0;
#X connect 5 0 3 1;
#X connect 6 0 7 0;
#X connect 8 0 1 0;
#X connect 9 0 10 0;
#X connect 10 0 11 0;
#X connect 11 0 12 0;
#X connect 11 0 16 0;
#X connect 11 1 13 0;
#X connect 11 1 16 0;
#X connect 11 2 6 0;
#X connect 14 0 18 0;
#X connect 16 0 15 0;
#X connect 17 0 9 0;
#X connect 18 0 17 0;
#X connect 18 1 4 0;
