#N canvas 80 33 1200 890 10;
#X obj 204 897 throw~ \$1-REVERB;
#X obj 28 895 throw~ \$1-LEFT;
#X obj 32 -16 r~ \$1-INPUT;
#X obj 403 902 throw~ \$1-RIGHT;
#X obj -2 161 hip~ 200;
#X msg 222 773 1;
#X obj 29 836 *~;
#X obj 403 847 *~;
#X obj 204 851 *~;
#X obj 222 744 r \$1-SCENEINIT-fromapp;
#X obj 274 766 loadbang;
#X msg 274 787 0;
#X obj 30 499 e_pitchshift;
#X msg 111 472 pitch \$1;
#X obj 110 234 sel 0;
#X obj 204 684 e_repeater repea;
#X obj 111 417 pack \$1 \$2;
#X obj 178 330 random 2000;
#X obj 111 394 - 24;
#X obj 110 94 r \$1-tick;
#X obj 110 368 random 48;
#X obj 111 438 line;
#X obj 178 378 clip 500 10000;
#X obj 110 305 t b b b;
#X obj 110 255 t b b;
#X obj 110 140 t f f;
#X obj 30 520 lop~ 3000;
#X obj 313 627 random 1000;
#X obj 31 259 *~ 0.3;
#X obj 313 653 max 100;
#X obj 110 119 mod 32;
#X obj 164 244 random 16;
#X obj 222 817 lop~ 0.1;
#X obj 203 580 delwrite~ \$1-cheapstereo 1000;
#X obj 202 602 delread~ \$1-cheapstereo 1000;
#X obj 167 720 *~ 1;
#X connect 2 0 4 0;
#X connect 4 0 12 0;
#X connect 4 0 28 0;
#X connect 5 0 32 0;
#X connect 6 0 1 0;
#X connect 7 0 3 0;
#X connect 8 0 0 0;
#X connect 9 0 5 0;
#X connect 10 0 11 0;
#X connect 11 0 32 0;
#X connect 12 0 26 0;
#X connect 13 0 12 1;
#X connect 14 0 24 0;
#X connect 15 0 8 0;
#X connect 15 0 35 0;
#X connect 16 0 21 0;
#X connect 17 0 22 0;
#X connect 18 0 16 0;
#X connect 19 0 30 0;
#X connect 20 0 18 0;
#X connect 21 0 13 0;
#X connect 22 0 16 1;
#X connect 23 0 20 0;
#X connect 23 1 27 0;
#X connect 23 2 17 0;
#X connect 24 0 23 0;
#X connect 24 1 31 0;
#X connect 25 0 14 0;
#X connect 26 0 6 0;
#X connect 26 0 8 0;
#X connect 26 0 15 0;
#X connect 26 0 33 0;
#X connect 27 0 29 0;
#X connect 28 0 6 0;
#X connect 28 0 7 0;
#X connect 29 0 15 1;
#X connect 30 0 25 0;
#X connect 31 0 14 1;
#X connect 32 0 7 1;
#X connect 32 0 8 1;
#X connect 32 0 6 1;
#X connect 34 0 15 0;
#X connect 35 0 6 0;
#X connect 35 0 7 0;
