#N canvas 70 469 812 250 10;
#X declare -path .;
#X declare -path abs;
#X declare -path samples;
#X obj 28 50 declare -path .;
#N canvas 0 22 588 274 LICENSE 0;
#X text 79 84 (c) 2008 Reality Jockey;
#X text 57 36 Released under the GNU General Public License ver. 3
or later. See the file LICENSE.txt for the full text.;
#X restore 28 20 pd LICENSE;
#X obj 28 80 declare -path abs;
#X obj 28 110 declare -path samples;
#X obj 221 57 loadbang;
#X obj 221 116 s \$1-IO-mainmix_vol;
#X obj 467 47 r #rjdj_architect_in;
#X text 221 34 Scene Init (waits for app);
#X text 465 28 App init (loads scene properly);
#X obj 467 178 s \$1-IO-mainmix_vol;
#X msg 221 93 0 80;
#X obj 499 122 s \$1-SCENEINIT-fromapp;
#X msg 467 155 1 0.2;
#X text 516 155 Turns up main_mix;
#X text 659 122 loads scene;
#X obj 467 68 sel scene_init;
#X obj 467 88 t b b;
#X connect 4 0 10 0;
#X connect 6 0 15 0;
#X connect 10 0 5 0;
#X connect 12 0 9 0;
#X connect 15 0 16 0;
#X connect 16 0 12 0;
#X connect 16 1 11 0;
