#N canvas 626 161 635 578 10;
#X obj 62 438 soundoutput;
#X obj 62 21 soundinput;
#X obj 115 216 catch~ \$1-CENTER;
#X obj 165 236 catch~ \$1-RIGHT;
#X obj 62 196 catch~ \$1-LEFT;
#X obj 62 155 s~ \$1-INPUT;
#X obj 115 237 /~ 2;
#X obj 165 357 *~;
#X obj 115 357 *~;
#X obj 62 357 *~;
#X obj 180 306 unpack f f;
#X obj 180 327 lop~ 10;
#X obj 180 286 r \$1-IO-mainmix_vol;
#X obj 62 95 e_agc;
#X obj 62 125 e_dynproc limiter;
#X obj 161 72 loadbang;
#X msg 161 92 comp2 1 \, comp1 62 \, makeup 100 \, rel 51 \, att 16
\, thresh 82.0253 \,;
#X obj 165 413 *~ 1;
#X obj 62 414 *~ 1;
#X connect 1 0 13 0;
#X connect 2 0 6 0;
#X connect 3 0 7 0;
#X connect 4 0 9 0;
#X connect 6 0 8 0;
#X connect 7 0 17 0;
#X connect 8 0 17 0;
#X connect 8 0 18 0;
#X connect 9 0 18 0;
#X connect 10 0 11 0;
#X connect 10 1 11 1;
#X connect 11 0 7 1;
#X connect 11 0 8 1;
#X connect 11 0 9 1;
#X connect 12 0 10 0;
#X connect 13 0 14 0;
#X connect 13 0 14 1;
#X connect 14 0 5 0;
#X connect 15 0 16 0;
#X connect 16 0 14 2;
#X connect 17 0 0 1;
#X connect 18 0 0 0;
