#N canvas 0 22 484 255 10;
#X obj 51 110 e_reverb rev1;
#X obj 51 34 catch~ \$1-REVERB;
#X obj 51 196 throw~ \$1-LEFT;
#X obj 138 135 throw~ \$1-RIGHT;
#X obj 137 63 loadbang;
#X msg 137 86 amp 90 \, hall 92 \, freq 2000 \, damp 50 \, dry 0;
#X connect 0 0 2 0;
#X connect 0 1 3 0;
#X connect 1 0 0 0;
#X connect 4 0 5 0;
#X connect 5 0 0 1;
